<svg 
 xmlns="http://www.w3.org/2000/svg"
 xmlns:xlink="http://www.w3.org/1999/xlink"
 width="256px" height="257px">
<path fill-rule="evenodd"  fill="rgb(255, 255, 255)"
 d="M19.000,12.000 L213.1000,12.000 L213.1000,256.1000 L19.000,256.1000 L19.000,12.000 Z"/>
<path fill-rule="evenodd"  fill="rgb(0, 191, 0)"
 d="M203.000,-0.000 L255.1000,-0.000 L255.1000,256.000 L203.000,256.000 L203.000,-0.000 Z"/>
<path fill-rule="evenodd"  fill="rgb(0, 191, 0)"
 d="M0.000,0.000 L203.1000,0.000 L203.1000,19.1000 L0.000,19.1000 L0.000,0.000 Z"/>
<path fill-rule="evenodd"  fill="rgb(0, 191, 0)"
 d="M-0.000,19.000 L59.000,19.000 L59.000,255.1000 L-0.000,255.1000 L-0.000,19.000 Z"/>
<path fill-rule="evenodd"  fill="rgb(0, 191, 0)"
 d="M207.000,225.1000 L236.1000,256.000 L177.000,256.000 L207.000,225.1000 Z"/>
<path fill-rule="evenodd"  fill="rgb(255, 255, 255)"
 d="M67.000,225.1000 L96.1000,256.000 L37.000,256.000 L67.000,225.1000 Z"/>
<path fill-rule="evenodd"  fill="rgb(255, 255, 255)"
 d="M54.000,169.000 C62.837,169.000 69.1000,176.163 69.1000,185.000 C69.1000,193.837 62.837,200.1000 54.000,200.1000 C45.163,200.1000 38.000,193.837 38.000,185.000 C38.000,176.163 45.163,169.000 54.000,169.000 Z"/>
<path fill-rule="evenodd"  fill="rgb(255, 255, 255)"
 d="M52.1000,169.000 L94.000,169.000 L94.000,200.1000 L52.1000,200.1000 L52.1000,169.000 Z"/>
<path fill-rule="evenodd"  fill="rgb(0, 231, 0)"
 d="M153.500,241.1000 L167.1000,256.000 L139.000,256.000 L153.500,241.1000 Z"/>
<path fill-rule="evenodd"  fill="rgb(0, 231, 0)"
 d="M161.389,234.141 L174.988,247.740 L166.586,256.142 L152.987,242.543 L161.389,234.141 Z"/>
<path fill-rule="evenodd"  fill="rgb(0, 231, 0)"
 d="M169.787,229.427 C175.192,229.427 179.573,233.808 179.573,239.213 C179.573,244.618 175.192,249.000 169.787,249.000 C164.382,249.000 159.1000,244.618 159.1000,239.213 C159.1000,233.808 164.382,229.427 169.787,229.427 Z"/>
<path fill-rule="evenodd"  fill="rgb(0, 231, 0)"
 d="M120.969,72.322 L157.916,86.211 L138.748,137.202 L101.801,123.313 L120.969,72.322 Z"/>
<path fill-rule="evenodd"  fill="rgb(0, 231, 0)"
 d="M92.1000,68.000 L152.000,68.000 L152.000,87.1000 L92.1000,87.1000 L92.1000,68.000 Z"/>
<path fill-rule="evenodd"  fill="rgb(0, 231, 0)"
 d="M175.000,102.000 L200.1000,102.000 L200.1000,121.1000 L175.000,121.1000 L175.000,102.000 Z"/>
<path fill-rule="evenodd"  fill="rgb(0, 231, 0)"
 d="M131.321,117.389 L180.539,213.408 L162.352,222.730 L113.135,126.711 L131.321,117.389 Z"/>
<path fill-rule="evenodd"  fill="rgb(0, 231, 0)"
 d="M101.1000,122.000 L121.000,122.000 L121.000,183.1000 L101.1000,183.1000 L101.1000,122.000 Z"/>
<path fill-rule="evenodd"  fill="rgb(0, 231, 0)"
 d="M112.000,174.1000 L112.000,194.000 L52.1000,194.000 L52.1000,174.1000 L112.000,174.1000 Z"/>
<path fill-rule="evenodd"  fill="rgb(0, 231, 0)"
 d="M111.500,174.1000 C116.747,174.1000 121.000,179.253 121.000,184.500 C121.000,189.747 116.747,194.000 111.500,194.000 C106.253,194.000 101.1000,189.747 101.1000,184.500 C101.1000,179.253 106.253,174.1000 111.500,174.1000 Z"/>
<path fill-rule="evenodd"  fill="rgb(0, 231, 0)"
 d="M53.500,174.1000 C58.747,174.1000 63.000,179.253 63.000,184.500 C63.000,189.747 58.747,194.000 53.500,194.000 C48.253,194.000 43.1000,189.747 43.1000,184.500 C43.1000,179.253 48.253,174.1000 53.500,174.1000 Z"/>
<path fill-rule="evenodd"  fill="rgb(0, 231, 0)"
 d="M170.123,205.754 C175.714,205.754 180.246,210.286 180.246,215.877 C180.246,221.468 175.714,226.000 170.123,226.000 C164.532,226.000 159.1000,221.468 159.1000,215.877 C159.1000,210.286 164.532,205.754 170.123,205.754 Z"/>
<path fill-rule="evenodd"  fill="rgb(0, 231, 0)"
 d="M151.480,67.906 L183.133,104.689 L167.832,117.856 L136.179,81.073 L151.480,67.906 Z"/>
<path fill-rule="evenodd"  fill="rgb(0, 231, 0)"
 d="M175.000,103.1000 C179.971,103.1000 184.000,108.029 184.000,113.000 C184.000,117.971 179.971,122.000 175.000,122.000 C170.029,122.000 165.1000,117.971 165.1000,113.000 C165.1000,108.029 170.029,103.1000 175.000,103.1000 Z"/>
<path fill-rule="evenodd"  fill="rgb(0, 231, 0)"
 d="M95.475,87.367 L81.844,111.681 L67.015,103.367 L82.142,76.386 C82.915,71.633 87.028,67.1000 91.1000,67.1000 C97.523,67.1000 101.1000,72.477 101.1000,78.000 C101.1000,82.299 99.282,85.953 95.475,87.367 Z"/>
<path fill-rule="evenodd"  fill="rgb(0, 231, 0)"
 d="M74.500,99.1000 C79.194,99.1000 83.000,103.806 83.000,108.500 C83.000,113.194 79.194,117.000 74.500,117.000 C69.806,117.000 65.1000,113.194 65.1000,108.500 C65.1000,103.806 69.806,99.1000 74.500,99.1000 Z"/>
<path fill-rule="evenodd"  fill="rgb(159, 159, 159)"
 d="M154.000,24.1000 C165.598,24.1000 175.000,34.402 175.000,46.000 C175.000,57.598 165.598,67.000 154.000,67.000 C142.402,67.000 132.1000,57.598 132.1000,46.000 C132.1000,34.402 142.402,24.1000 154.000,24.1000 Z"/>
</svg>